<svg xmlns="http://www.w3.org/2000/svg" viewBox="0 0 200 200" role="img" aria-label="Goethes sechsteiliger Farbkreis mit Komplementärpaaren Gelb-Violett, Orange-Blau, Rot-Gruen">
  <g stroke="#0d0d0c" stroke-width="2" stroke-linejoin="round">
    <path d="M100,100 L100,20 A80,80 0 0 1 169.28,60 Z" fill="#EFC400"/>
    <path d="M100,100 L169.28,60 A80,80 0 0 1 169.28,140 Z" fill="#E07B2A"/>
    <path d="M100,100 L169.28,140 A80,80 0 0 1 100,180 Z" fill="#C8324B"/>
    <path d="M100,100 L100,180 A80,80 0 0 1 30.72,140 Z" fill="#7B3A8E"/>
    <path d="M100,100 L30.72,140 A80,80 0 0 1 30.72,60 Z" fill="#2E5FA3"/>
    <path d="M100,100 L30.72,60 A80,80 0 0 1 100,20 Z" fill="#3E8E5A"/>
  </g>
  <g stroke="#0d0d0c" stroke-width="1" stroke-opacity="0.35" stroke-dasharray="2 4">
    <line x1="135" y1="40" x2="65" y2="160"/>
    <line x1="169" y1="100" x2="31" y2="100"/>
    <line x1="135" y1="160" x2="65" y2="40"/>
  </g>
  <circle cx="100" cy="100" r="6" fill="#0d0d0c"/>
</svg>
